<?xml version="1.0" encoding="utf-8"?>
<!-- Generator: Adobe Illustrator 19.1.1, SVG Export Plug-In . SVG Version: 6.00 Build 0)  -->
<svg version="1.1" id="Layer_1" xmlns="http://www.w3.org/2000/svg" xmlns:xlink="http://www.w3.org/1999/xlink" x="0px" y="0px"
	 viewBox="0 0 1200 1200" enable-background="new 0 0 1200 1200" xml:space="preserve">
<g>
	<g>
		<g>
			<g>
				<path fill="#7A838B" d="M934.769,1135.781H600.001H265.234c-16.599,0-31.627-6.728-42.505-17.606
					c-10.878-10.878-17.606-25.905-17.606-42.505V600V124.33c0-16.599,6.728-31.627,17.606-42.505s25.905-17.606,42.505-17.606
					h334.768h334.768c16.599,0,31.627,6.728,42.505,17.606c10.878,10.878,17.606,25.905,17.606,42.505V600v475.67
					c0,16.599-6.728,31.627-17.606,42.505C966.396,1129.052,951.368,1135.781,934.769,1135.781z"/>
				<path fill="#2E4C59" d="M953.169,1150H600.003H246.837c-15.422,0-29.406-6.273-39.534-16.4s-16.401-24.111-16.401-39.532V600
					V105.932c0-15.421,6.273-29.404,16.401-39.532S231.414,50,246.837,50h353.166h353.166c15.42,0,29.402,6.273,39.529,16.4
					c10.128,10.128,16.4,24.111,16.4,39.532V600v494.068c0,15.421-6.273,29.404-16.4,39.532
					C982.571,1143.727,968.589,1150,953.169,1150z M246.837,78.44c-7.579,0-14.453,3.084-19.432,8.062
					c-4.979,4.978-8.063,11.851-8.063,19.431V600v494.068c0,7.579,3.084,14.453,8.063,19.431c4.979,4.978,11.853,8.062,19.432,8.062
					h353.166h353.166c7.579,0,14.452-3.083,19.429-8.062c4.978-4.978,8.06-11.851,8.06-19.431V600V105.932
					c0-7.579-3.083-14.452-8.06-19.431c-4.978-4.978-11.85-8.062-19.429-8.062H600.003H246.837z"/>
			</g>
			<g>
				<path fill="#667079" d="M994.88,434.388V270.16V105.931c0-11.518-4.669-21.946-12.217-29.495S964.686,64.22,953.168,64.22
					H600.002H246.835c-11.518,0-21.946,4.669-29.495,12.217c-7.548,7.548-12.217,17.976-12.217,29.495V270.16v164.229h394.878
					H994.88z"/>
				<path fill="#2E4C59" d="M994.879,448.609H600H205.121c-3.927,0-7.482-1.591-10.055-4.165s-4.165-6.128-4.165-10.055V270.161
					V105.932c0-15.421,6.273-29.404,16.401-39.532S231.414,50,246.837,50h353.166h353.166c15.42,0,29.402,6.273,39.529,16.4
					c10.128,10.128,16.4,24.111,16.4,39.532v164.228v164.228c0,3.927-1.591,7.482-4.165,10.055S998.806,448.609,994.879,448.609z
					 M219.341,420.169H600h380.659V263.051V105.932c0-7.579-3.083-14.452-8.06-19.431c-4.978-4.978-11.85-8.062-19.429-8.062
					H600.003H246.837c-7.579,0-14.453,3.084-19.432,8.062c-4.979,4.978-8.063,11.851-8.063,19.431v157.118V420.169z"/>
			</g>
			<g>
				<path fill="#9AA1A7" d="M889.266,1090.277H577.25H265.234c-16.599,0-31.627-6.728-42.505-17.606
					c-10.878-10.878-17.606-25.905-17.606-42.504V577.248V124.33c0-16.599,6.728-31.627,17.606-42.505s25.905-17.606,42.505-17.606
					H577.25h312.016c16.599,0,31.627,6.728,42.504,17.606c10.878,10.878,17.606,25.905,17.606,42.505v452.918v452.918
					c0,16.599-6.728,31.627-17.606,42.504C920.892,1083.549,905.865,1090.277,889.266,1090.277z"/>
				<path fill="#2E4C59" d="M907.665,1104.496H577.251H246.837c-15.422,0-29.406-6.273-39.534-16.4s-16.401-24.111-16.401-39.532
					V577.248V105.932c0-15.421,6.273-29.404,16.401-39.532S231.414,50,246.837,50h330.414h330.414c15.42,0,29.402,6.273,39.529,16.4
					c10.128,10.128,16.4,24.111,16.4,39.532v471.316v471.316c0,15.421-6.273,29.404-16.4,39.532
					C937.067,1098.224,923.085,1104.496,907.665,1104.496z M246.837,78.44c-7.579,0-14.453,3.084-19.432,8.062
					c-4.979,4.978-8.063,11.851-8.063,19.431v471.316v471.316c0,7.579,3.084,14.453,8.063,19.431
					c4.979,4.978,11.853,8.062,19.432,8.062h330.414h330.414c7.579,0,14.452-3.083,19.429-8.062
					c4.978-4.978,8.06-11.851,8.06-19.431V577.248V105.932c0-7.579-3.083-14.452-8.06-19.431c-4.978-4.978-11.85-8.062-19.429-8.062
					H577.251H246.837z"/>
			</g>
			<g>
				<path fill="#2E4C59" d="M949.376,428.7V267.316V105.931c0-11.518-4.669-21.946-12.217-29.495
					c-7.548-7.548-17.976-12.217-29.495-12.217H577.25H246.835c-11.518,0-21.946,4.669-29.495,12.217
					c-7.548,7.548-12.217,17.976-12.217,29.495v161.384V428.7H577.25H949.376z"/>
				<path fill="#2E4C59" d="M949.375,442.921H577.248H205.121c-3.927,0-7.482-1.591-10.055-4.165s-4.165-6.128-4.165-10.055V267.317
					V105.932c0-15.421,6.273-29.404,16.401-39.532S231.414,50,246.837,50h330.414h330.414c15.42,0,29.402,6.273,39.529,16.4
					c10.128,10.128,16.4,24.111,16.4,39.532v161.384v161.384c0,3.927-1.591,7.482-4.165,10.055S953.302,442.921,949.375,442.921z
					 M219.341,414.481h357.907h357.907V260.207V105.932c0-7.579-3.083-14.452-8.06-19.431c-4.978-4.978-11.85-8.062-19.429-8.062
					H577.251H246.837c-7.579,0-14.453,3.084-19.432,8.062c-4.979,4.978-8.063,11.851-8.063,19.431v154.274V414.481z"/>
			</g>
		</g>
		<g>
			<path fill="#FFFFFF" d="M713.878,271.243c0,13.173-1.464,24.805-4.391,34.897c-2.927,10.092-7.318,18.643-13.173,25.654
				c-5.855,7.011-12.783,12.269-20.785,15.775c-8.002,3.505-17.078,5.258-27.229,5.258c-10.104,0-19.156-1.758-27.159-5.275
				s-14.954-8.793-20.856-15.83c-5.902-7.034-10.329-15.59-13.28-25.67c-2.952-10.08-4.428-21.683-4.428-34.808v-24.432v-24.432
				c0-13.126,1.464-24.734,4.391-34.826s7.318-18.667,13.173-25.725c5.855-7.057,12.771-12.351,20.751-15.88
				c7.979-3.529,17.021-5.294,27.125-5.294c10.151,0,19.238,1.765,27.264,5.294c8.026,3.529,14.99,8.823,20.894,15.88
				c5.899,7.059,10.325,15.633,13.276,25.725c2.951,10.092,4.427,21.7,4.427,34.826v24.432V271.243z M685.977,216.43
				c0-8.924-0.81-16.743-2.427-23.459c-1.618-6.716-4.044-12.328-7.277-16.837c-3.236-4.508-7.207-7.889-11.916-10.143
				s-10.155-3.382-16.34-3.382c-6.091,0-11.462,1.128-16.113,3.382c-4.651,2.254-8.581,5.636-11.788,10.143
				c-3.213,4.509-5.621,10.121-7.226,16.837c-1.605,6.716-2.406,14.535-2.406,23.459v30.239v30.239
				c0,8.924,0.814,16.755,2.442,23.494c1.628,6.74,4.071,12.387,7.329,16.943c3.258,4.556,7.224,7.973,11.898,10.251
				c4.674,2.278,10.057,3.416,16.147,3.416c6.185,0,11.62-1.133,16.306-3.399c4.685-2.266,8.621-5.666,11.806-10.198
				c3.188-4.531,5.58-10.173,7.174-16.924c1.594-6.751,2.391-14.612,2.391-23.583v-30.239V216.43z"/>
			<path fill="#FFFFFF" d="M879.312,271.243c0,13.173-1.464,24.805-4.391,34.897c-2.927,10.092-7.318,18.643-13.173,25.654
				c-5.855,7.011-12.783,12.269-20.785,15.775c-8.002,3.505-17.078,5.258-27.229,5.258c-10.104,0-19.157-1.758-27.159-5.275
				s-14.954-8.793-20.856-15.83c-5.902-7.034-10.329-15.59-13.28-25.67c-2.952-10.08-4.428-21.683-4.428-34.808v-24.432v-24.432
				c0-13.126,1.464-24.734,4.391-34.826s7.318-18.667,13.173-25.725c5.855-7.057,12.771-12.351,20.751-15.88
				c7.979-3.529,17.021-5.294,27.125-5.294c10.151,0,19.238,1.765,27.264,5.294c8.026,3.529,14.99,8.823,20.894,15.88
				c5.899,7.059,10.325,15.633,13.276,25.725c2.951,10.092,4.427,21.7,4.427,34.826v24.432V271.243z M851.411,216.43
				c0-8.924-0.81-16.743-2.427-23.459c-1.618-6.716-4.044-12.328-7.277-16.837c-3.236-4.508-7.207-7.889-11.916-10.143
				s-10.155-3.382-16.34-3.382c-6.091,0-11.462,1.128-16.113,3.382c-4.651,2.254-8.581,5.636-11.788,10.143
				c-3.213,4.509-5.621,10.121-7.226,16.837c-1.605,6.716-2.406,14.535-2.406,23.459v30.239v30.239
				c0,8.924,0.814,16.755,2.442,23.494c1.628,6.74,4.071,12.387,7.329,16.943s7.224,7.973,11.898,10.251
				c4.674,2.278,10.057,3.416,16.147,3.416c6.185,0,11.62-1.133,16.306-3.399c4.685-2.266,8.621-5.666,11.806-10.198
				c3.188-4.531,5.58-10.173,7.174-16.924c1.594-6.751,2.391-14.612,2.391-23.583v-30.239V216.43z"/>
		</g>
	</g>
	<g opacity="0.35">
		<path fill="#2E4C59" d="M313.27,64.22h-33.217h-33.217c-11.519,0-21.947,4.669-29.495,12.217
			c-7.548,7.548-12.217,17.976-12.217,29.495v471.317v471.317c0,11.518,4.669,21.946,12.217,29.495
			c7.548,7.548,17.976,12.217,29.495,12.217h33.217h33.217V577.248V64.22z"/>
		<path fill="#2E4C59" d="M313.27,1104.496h-33.217h-33.217c-15.422,0-29.406-6.273-39.534-16.4s-16.401-24.111-16.401-39.532
			V577.248V105.932c0-15.421,6.273-29.404,16.401-39.532S231.414,50,246.837,50h33.217h33.217c3.927,0,7.482,1.591,10.055,4.165
			c2.573,2.573,4.165,6.128,4.165,10.055v513.028v513.028c0,3.927-1.591,7.482-4.165,10.055
			C320.752,1102.905,317.197,1104.496,313.27,1104.496z M246.837,78.44c-7.579,0-14.453,3.084-19.432,8.062
			c-4.979,4.978-8.063,11.851-8.063,19.431v471.316v471.316c0,7.579,3.084,14.453,8.063,19.431
			c4.979,4.978,11.853,8.062,19.432,8.062h26.107h26.107V577.248V78.44h-26.107H246.837z"/>
	</g>
	<g opacity="0.35">
		<path fill="#2E4C59" d="M489.103,604.914h-23.484h-23.484v-23.485v-23.485c0-7.014-2.843-13.364-7.439-17.961
			c-4.597-4.597-10.947-7.44-17.962-7.44s-13.366,2.843-17.962,7.44c-4.597,4.597-7.439,10.947-7.439,17.961v23.485v23.485h-23.486
			h-23.486c-7.015,0-13.366,2.843-17.962,7.44c-4.597,4.597-7.439,10.947-7.439,17.961c0,7.015,2.843,13.366,7.439,17.962
			c4.597,4.597,10.947,7.439,17.962,7.439h23.486h23.486v23.484v23.484c0,7.015,2.843,13.366,7.439,17.962
			c4.597,4.597,10.947,7.439,17.962,7.439s13.366-2.843,17.962-7.439c4.597-4.597,7.439-10.947,7.439-17.962v-23.484v-23.484h23.484
			h23.484c7.015,0,13.366-2.843,17.962-7.439c4.597-4.597,7.439-10.947,7.439-17.962c0-7.014-2.843-13.364-7.439-17.961
			C502.468,607.758,496.118,604.914,489.103,604.914z"/>
		<path fill="#2E4C59" d="M416.736,742.307c-10.923,0-20.828-4.444-28.003-11.618s-11.618-17.08-11.618-28.003v-16.374v-16.374
			h-16.378h-16.378c-10.923,0-20.828-4.444-28.003-11.619c-7.174-7.175-11.618-17.081-11.618-28.005
			c0-10.923,4.444-20.828,11.618-28.003s17.08-11.618,28.003-11.618h16.378h16.378v-16.375v-16.375
			c0-10.923,4.444-20.828,11.618-28.003s17.08-11.618,28.003-11.618c10.923,0,20.828,4.444,28.003,11.618
			s11.618,17.08,11.618,28.003v16.375v16.375h16.372h16.372c10.923,0,20.828,4.444,28.003,11.618s11.618,17.08,11.618,28.003
			c0,10.925-4.444,20.831-11.618,28.005c-7.174,7.175-17.08,11.619-28.003,11.619H472.73h-16.372v16.374v16.374
			c0,10.923-4.444,20.828-11.618,28.003S427.659,742.307,416.736,742.307z M344.359,619.133c-3.083,0-5.878,1.254-7.903,3.279
			s-3.279,4.82-3.279,7.903s1.254,5.879,3.279,7.904s4.82,3.28,7.903,3.28h23.488h23.488c3.927,0,7.482,1.591,10.055,4.165
			s4.165,6.128,4.165,10.055v23.484v23.484c0,3.083,1.254,5.878,3.279,7.903s4.82,3.279,7.903,3.279
			c3.083,0,5.878-1.254,7.903-3.279s3.279-4.82,3.279-7.903v-23.484v-23.484c0-3.927,1.591-7.482,4.165-10.055
			s6.128-4.165,10.055-4.165h23.482h23.482c3.083,0,5.878-1.255,7.903-3.28s3.279-4.821,3.279-7.904s-1.254-5.878-3.279-7.903
			s-4.82-3.279-7.903-3.279H465.62h-23.482c-3.927,0-7.482-1.591-10.055-4.165s-4.165-6.128-4.165-10.055v-23.485v-23.485
			c0-3.083-1.254-5.878-3.279-7.903s-4.82-3.279-7.903-3.279c-3.083,0-5.878,1.254-7.903,3.279s-3.279,4.82-3.279,7.903v23.485
			v23.485c0,3.927-1.591,7.482-4.165,10.055s-6.128,4.165-10.055,4.165h-23.488H344.359z"/>
	</g>
	<g opacity="0.35">
		<path fill="#2E4C59" d="M843.431,604.913h-72.372h-72.372c-7.015,0-13.365,2.843-17.962,7.44
			c-4.597,4.597-7.439,10.947-7.439,17.961c0,7.015,2.843,13.366,7.439,17.962c4.597,4.597,10.947,7.439,17.962,7.439h72.372h72.372
			c7.015,0,13.366-2.843,17.962-7.439c4.597-4.597,7.439-10.947,7.439-17.962c0-7.014-2.843-13.364-7.439-17.961
			C856.797,607.756,850.446,604.913,843.431,604.913z"/>
		<path fill="#2E4C59" d="M843.432,669.936H771.06h-72.371c-10.923,0-20.828-4.444-28.003-11.618s-11.618-17.08-11.618-28.003
			s4.444-20.828,11.618-28.003s17.08-11.618,28.003-11.618h72.371h72.371c10.923,0,20.828,4.444,28.003,11.618
			s11.618,17.08,11.618,28.003s-4.444,20.828-11.618,28.003S854.355,669.936,843.432,669.936z M698.689,619.133
			c-3.083,0-5.878,1.254-7.903,3.279s-3.279,4.82-3.279,7.903s1.254,5.878,3.279,7.903s4.82,3.279,7.903,3.279h72.371h72.371
			c3.083,0,5.878-1.254,7.903-3.279c2.025-2.025,3.279-4.82,3.279-7.903s-1.254-5.878-3.279-7.903
			c-2.025-2.025-4.82-3.279-7.903-3.279H771.06H698.689z"/>
	</g>
	<g opacity="0.35">
		<g>
			<path fill="#2E4C59" d="M710.103,881.119h60.956h60.956c7.015,0,13.366-2.843,17.962-7.439
				c4.597-4.597,7.439-10.947,7.439-17.962c0-7.015-2.843-13.366-7.439-17.962c-4.597-4.597-10.947-7.439-17.962-7.439h-60.956
				h-60.956c-7.015,0-13.366,2.843-17.962,7.439c-4.597,4.597-7.439,10.947-7.439,17.962c0,7.015,2.843,13.366,7.439,17.962
				C696.738,878.276,703.088,881.119,710.103,881.119z"/>
			<path fill="#2E4C59" d="M832.017,895.34H771.06h-60.956c-10.923,0-20.828-4.444-28.003-11.618s-11.618-17.08-11.618-28.003
				c0-10.923,4.444-20.828,11.618-28.003s17.08-11.618,28.003-11.618h60.956h60.957c10.923,0,20.828,4.444,28.003,11.618
				s11.618,17.08,11.618,28.003c0,10.923-4.444,20.828-11.618,28.003S842.94,895.34,832.017,895.34z M710.104,844.537
				c-3.083,0-5.878,1.254-7.903,3.279c-2.025,2.025-3.279,4.82-3.279,7.903s1.254,5.878,3.279,7.903
				c2.025,2.025,4.82,3.279,7.903,3.279h60.956h60.957c3.083,0,5.878-1.254,7.903-3.279s3.279-4.82,3.279-7.903
				s-1.254-5.878-3.279-7.903c-2.025-2.025-4.82-3.279-7.903-3.279H771.06H710.104z"/>
		</g>
		<g>
			<path fill="#2E4C59" d="M832.015,927.933h-60.956h-60.956c-7.015,0-13.366,2.843-17.962,7.439
				c-4.597,4.597-7.439,10.947-7.439,17.962c0,7.015,2.843,13.366,7.439,17.962c4.597,4.597,10.947,7.439,17.962,7.439h60.956
				h60.956c7.015,0,13.366-2.843,17.962-7.439c4.597-4.597,7.439-10.947,7.439-17.962c0-7.015-2.843-13.366-7.439-17.962
				C845.381,930.776,839.03,927.933,832.015,927.933z"/>
			<path fill="#2E4C59" d="M832.017,992.957H771.06h-60.956c-10.923,0-20.828-4.444-28.003-11.618s-11.618-17.08-11.618-28.003
				c0-10.923,4.444-20.828,11.618-28.003s17.08-11.618,28.003-11.618h60.956h60.957c10.923,0,20.828,4.444,28.003,11.618
				s11.618,17.08,11.618,28.003c0,10.923-4.444,20.828-11.618,28.003S842.94,992.957,832.017,992.957z M710.104,942.154
				c-3.083,0-5.878,1.254-7.903,3.279c-2.025,2.025-3.279,4.82-3.279,7.903s1.254,5.878,3.279,7.903
				c2.025,2.025,4.82,3.279,7.903,3.279h60.956h60.957c3.083,0,5.878-1.254,7.903-3.279s3.279-4.82,3.279-7.903
				s-1.254-5.878-3.279-7.903c-2.025-2.025-4.82-3.279-7.903-3.279H771.06H710.104z"/>
		</g>
	</g>
	<g opacity="0.35">
		<path fill="#2E4C59" d="M452.649,904.526l16.607-16.608l16.607-16.608c4.961-4.959,7.442-11.459,7.442-17.96
			c0-6.5-2.481-13.001-7.442-17.96c-4.956-4.961-11.458-7.442-17.96-7.442s-13.003,2.481-17.96,7.442l-16.606,16.607l-16.606,16.607
			l-16.606-16.607l-16.606-16.607c-4.956-4.961-11.458-7.442-17.96-7.442c-6.502,0-13.003,2.481-17.96,7.442
			c-4.961,4.959-7.442,11.459-7.442,17.96c0,6.5,2.481,13.001,7.442,17.96l16.607,16.608l16.607,16.608l-16.607,16.608
			l-16.607,16.608c-4.961,4.959-7.442,11.459-7.442,17.96c0,6.5,2.481,13.001,7.442,17.96c2.478,2.481,5.343,4.341,8.401,5.581
			c3.058,1.24,6.309,1.86,9.558,1.86s6.5-0.62,9.558-1.86c3.058-1.24,5.923-3.101,8.401-5.581l16.606-16.607l16.606-16.607
			l16.606,16.607l16.606,16.607c2.478,2.481,5.343,4.341,8.401,5.581c3.058,1.24,6.309,1.86,9.558,1.86s6.5-0.62,9.558-1.86
			c3.058-1.24,5.923-3.101,8.401-5.581c4.961-4.959,7.442-11.459,7.442-17.96c0-6.5-2.481-13.001-7.442-17.96l-16.607-16.608
			L452.649,904.526z"/>
		<path fill="#2E4C59" d="M467.905,995.323c-5.294,0-10.427-1.031-15.174-2.998s-9.105-4.87-12.849-8.614l-11.576-11.577
			l-11.576-11.577l-11.579,11.579l-11.579,11.579c-3.736,3.742-8.09,6.645-12.835,8.611c-4.745,1.967-9.88,2.998-15.177,2.998
			c-5.294,0-10.427-1.031-15.174-2.998c-4.746-1.967-9.105-4.87-12.849-8.614c-3.738-3.738-6.638-8.095-8.603-12.84
			c-1.965-4.745-2.995-9.878-2.995-15.169c0-5.292,1.03-10.426,2.996-15.172s4.867-9.104,8.608-12.845l11.581-11.579l11.581-11.579
			l-11.581-11.581l-11.581-11.581c-3.741-3.74-6.642-8.097-8.608-12.843c-1.966-4.745-2.996-9.879-2.996-15.169
			c0-5.292,1.03-10.426,2.996-15.172s4.867-9.104,8.608-12.845c3.738-3.741,8.094-6.643,12.84-8.609
			c4.746-1.966,9.881-2.997,15.177-2.997c5.294,0,10.427,1.031,15.173,2.998s9.103,4.87,12.844,8.614l11.576,11.577l11.576,11.577
			l11.579-11.579l11.579-11.579c3.738-3.742,8.094-6.645,12.84-8.611c4.745-1.967,9.879-2.998,15.172-2.998
			c5.296,0,10.432,1.031,15.178,2.998s9.104,4.87,12.845,8.614c3.738,3.738,6.638,8.095,8.603,12.841
			c1.965,4.745,2.995,9.879,2.995,15.171c0,5.291-1.03,10.424-2.996,15.17s-4.867,9.104-8.608,12.845l-11.581,11.58l-11.581,11.58
			l11.581,11.579l11.581,11.579c3.741,3.741,6.642,8.099,8.608,12.845s2.996,9.88,2.996,15.172c0,5.291-1.03,10.424-2.996,15.17
			s-4.867,9.104-8.608,12.845c-3.736,3.741-8.09,6.643-12.835,8.609C478.337,994.292,473.202,995.323,467.905,995.323z
			 M416.731,926.226c1.886,0,3.733,0.374,5.441,1.082s3.279,1.749,4.612,3.084l16.606,16.607l16.606,16.607
			c2.116,2.114,5.014,3.17,7.91,3.17c2.895,0.001,5.788-1.054,7.893-3.162c1.061-1.061,1.882-2.293,2.437-3.632
			c0.555-1.34,0.846-2.787,0.846-4.28c0-1.494-0.29-2.943-0.844-4.281s-1.372-2.568-2.427-3.623l-16.608-16.607l-16.608-16.607
			c-1.333-1.334-2.375-2.906-3.083-4.615c-0.708-1.709-1.083-3.556-1.083-5.442s0.375-3.733,1.083-5.441
			c0.708-1.709,1.75-3.279,3.083-4.612l16.608-16.608l16.608-16.608c1.055-1.057,1.873-2.286,2.427-3.625
			c0.554-1.339,0.844-2.786,0.844-4.279c0-1.494-0.29-2.943-0.844-4.281s-1.372-2.568-2.427-3.623
			c-2.111-2.114-5.005-3.17-7.9-3.171s-5.792,1.055-7.908,3.165l-16.608,16.608l-16.608,16.608
			c-2.666,2.669-6.36,4.003-10.054,4.003c-3.694,0-7.388-1.334-10.054-4.003l-16.606-16.607l-16.606-16.607
			c-2.116-2.114-5.013-3.168-7.908-3.168c-2.895,0.001-5.789,1.057-7.9,3.165c-1.058,1.058-1.877,2.289-2.432,3.628
			s-0.845,2.788-0.845,4.282c0,1.493,0.29,2.94,0.844,4.279s1.372,2.567,2.427,3.623l16.608,16.61l16.608,16.61
			c1.333,1.333,2.375,2.904,3.083,4.612c0.708,1.709,1.083,3.556,1.083,5.441s-0.375,3.733-1.083,5.442
			c-0.708,1.709-1.75,3.28-3.083,4.615l-16.608,16.607l-16.608,16.607c-1.055,1.055-1.873,2.284-2.427,3.623
			s-0.844,2.787-0.844,4.281c0,1.493,0.29,2.94,0.844,4.279s1.372,2.567,2.427,3.623c2.116,2.116,5.014,3.173,7.91,3.174
			c2.895,0.001,5.788-1.055,7.893-3.163l16.611-16.611l16.611-16.611c1.333-1.334,2.904-2.376,4.612-3.084
			S414.845,926.226,416.731,926.226z"/>
	</g>
	<g>
		<path fill="#FFFFFF" d="M466.351,582.162h-23.484h-23.484v-23.485v-23.485c0-7.014-2.843-13.364-7.439-17.961
			c-4.597-4.597-10.947-7.44-17.962-7.44s-13.366,2.843-17.962,7.44c-4.597,4.597-7.439,10.947-7.439,17.961v23.485v23.485h-23.486
			h-23.486c-7.015,0-13.366,2.843-17.962,7.44c-4.597,4.597-7.439,10.947-7.439,17.961c0,7.015,2.843,13.366,7.439,17.962
			c4.597,4.597,10.947,7.439,17.962,7.439h23.486h23.486v23.484v23.484c0,7.015,2.843,13.366,7.439,17.962
			c4.597,4.597,10.947,7.439,17.962,7.439s13.366-2.843,17.962-7.439c4.597-4.597,7.439-10.947,7.439-17.962v-23.484v-23.484h23.484
			h23.484c7.015,0,13.366-2.843,17.962-7.439c4.597-4.597,7.439-10.947,7.439-17.962c0-7.014-2.843-13.364-7.439-17.961
			C479.717,585.006,473.366,582.162,466.351,582.162z"/>
		<path fill="#2E4C59" d="M393.984,719.555c-10.923,0-20.828-4.444-28.003-11.618s-11.618-17.08-11.618-28.003V663.56v-16.374
			h-16.378h-16.378c-10.923,0-20.828-4.444-28.003-11.619c-7.174-7.175-11.618-17.081-11.618-28.005
			c0-10.923,4.444-20.828,11.618-28.003c7.174-7.174,17.08-11.618,28.003-11.618h16.378h16.378v-16.375v-16.375
			c0-10.923,4.444-20.828,11.618-28.003c7.174-7.174,17.08-11.618,28.003-11.618c10.923,0,20.828,4.444,28.003,11.618
			c7.174,7.174,11.618,17.08,11.618,28.003v16.375v16.375h16.372h16.372c10.923,0,20.828,4.444,28.003,11.618
			s11.618,17.08,11.618,28.003c0,10.925-4.444,20.831-11.618,28.005c-7.174,7.175-17.08,11.619-28.003,11.619h-16.372h-16.372
			v16.374v16.374c0,10.923-4.444,20.828-11.618,28.003S404.908,719.555,393.984,719.555z M321.608,596.381
			c-3.083,0-5.878,1.254-7.903,3.279s-3.279,4.82-3.279,7.903s1.254,5.879,3.279,7.904c2.025,2.025,4.82,3.28,7.903,3.28h23.488
			h23.488c3.927,0,7.482,1.591,10.055,4.165s4.165,6.128,4.165,10.055v23.484v23.484c0,3.083,1.254,5.878,3.279,7.903
			s4.82,3.279,7.903,3.279s5.878-1.254,7.903-3.279s3.279-4.82,3.279-7.903V656.45v-23.484c0-3.927,1.591-7.482,4.165-10.055
			s6.128-4.165,10.055-4.165h23.482h23.482c3.083,0,5.878-1.255,7.903-3.28c2.025-2.025,3.279-4.821,3.279-7.904
			s-1.254-5.878-3.279-7.903s-4.82-3.279-7.903-3.279h-23.482h-23.482c-3.927,0-7.482-1.591-10.055-4.165s-4.165-6.128-4.165-10.055
			v-23.485v-23.485c0-3.083-1.254-5.878-3.279-7.903s-4.82-3.279-7.903-3.279s-5.878,1.254-7.903,3.279s-3.279,4.82-3.279,7.903
			v23.485v23.485c0,3.927-1.591,7.482-4.165,10.055s-6.128,4.165-10.055,4.165h-23.488H321.608z"/>
	</g>
	<g>
		<path fill="#ABE1ED" d="M820.679,582.161h-72.372h-72.372c-7.015,0-13.366,2.843-17.962,7.44
			c-4.597,4.597-7.439,10.947-7.439,17.961c0,7.015,2.843,13.366,7.439,17.962c4.597,4.597,10.947,7.439,17.962,7.439h72.372h72.372
			c7.015,0,13.366-2.843,17.962-7.439c4.597-4.597,7.439-10.947,7.439-17.962c0-7.014-2.843-13.364-7.439-17.961
			C834.045,585.005,827.694,582.161,820.679,582.161z"/>
		<path fill="#2E4C59" d="M820.68,647.184h-72.371h-72.371c-10.923,0-20.828-4.444-28.003-11.618s-11.618-17.08-11.618-28.003
			s4.444-20.828,11.618-28.003s17.08-11.618,28.003-11.618h72.371h72.371c10.923,0,20.828,4.444,28.003,11.618
			s11.618,17.08,11.618,28.003s-4.444,20.828-11.618,28.003S831.603,647.184,820.68,647.184z M675.937,596.381
			c-3.083,0-5.878,1.254-7.903,3.279s-3.279,4.82-3.279,7.903s1.254,5.878,3.279,7.903s4.82,3.279,7.903,3.279h72.371h72.371
			c3.083,0,5.878-1.254,7.903-3.279c2.025-2.025,3.279-4.82,3.279-7.903s-1.254-5.878-3.279-7.903
			c-2.025-2.025-4.82-3.279-7.903-3.279h-72.371H675.937z"/>
	</g>
	<g>
		<g>
			<path fill="#FFFFFF" d="M687.351,858.367h60.956h60.956c7.015,0,13.366-2.843,17.962-7.439
				c4.597-4.597,7.439-10.947,7.439-17.962c0-7.015-2.843-13.366-7.439-17.962c-4.597-4.597-10.947-7.439-17.962-7.439h-60.956
				h-60.956c-7.015,0-13.366,2.843-17.962,7.439c-4.597,4.597-7.439,10.947-7.439,17.962c0,7.015,2.843,13.366,7.439,17.962
				C673.986,855.525,680.336,858.367,687.351,858.367z"/>
			<path fill="#2E4C59" d="M809.265,872.588h-60.957h-60.956c-10.923,0-20.828-4.444-28.003-11.618s-11.618-17.08-11.618-28.003
				c0-10.923,4.444-20.828,11.618-28.003s17.08-11.618,28.003-11.618h60.956h60.957c10.923,0,20.828,4.444,28.003,11.618
				s11.618,17.08,11.618,28.003c0,10.923-4.444,20.828-11.618,28.003S820.188,872.588,809.265,872.588z M687.352,821.785
				c-3.083,0-5.878,1.254-7.903,3.279s-3.279,4.82-3.279,7.903s1.254,5.878,3.279,7.903s4.82,3.279,7.903,3.279h60.956h60.957
				c3.083,0,5.878-1.254,7.903-3.279s3.279-4.82,3.279-7.903s-1.254-5.878-3.279-7.903s-4.82-3.279-7.903-3.279h-60.957H687.352z"/>
		</g>
		<g>
			<path fill="#FFFFFF" d="M809.263,905.181h-60.956h-60.956c-7.015,0-13.366,2.843-17.962,7.439
				c-4.597,4.597-7.439,10.947-7.439,17.962c0,7.015,2.843,13.366,7.439,17.962c4.597,4.597,10.947,7.439,17.962,7.439h60.956
				h60.956c7.015,0,13.366-2.843,17.962-7.439c4.597-4.597,7.439-10.947,7.439-17.962c0-7.015-2.843-13.366-7.439-17.962
				C822.629,908.024,816.279,905.181,809.263,905.181z"/>
			<path fill="#2E4C59" d="M809.265,970.205h-60.957h-60.956c-10.923,0-20.828-4.444-28.003-11.618s-11.618-17.08-11.618-28.003
				c0-10.923,4.444-20.828,11.618-28.003s17.08-11.618,28.003-11.618h60.956h60.957c10.923,0,20.828,4.444,28.003,11.618
				s11.618,17.08,11.618,28.003c0,10.923-4.444,20.828-11.618,28.003S820.188,970.205,809.265,970.205z M687.352,919.402
				c-3.083,0-5.878,1.254-7.903,3.279c-2.025,2.025-3.279,4.82-3.279,7.903s1.254,5.878,3.279,7.903s4.82,3.279,7.903,3.279h60.956
				h60.957c3.083,0,5.878-1.254,7.903-3.279s3.279-4.82,3.279-7.903s-1.254-5.878-3.279-7.903c-2.025-2.025-4.82-3.279-7.903-3.279
				h-60.957H687.352z"/>
		</g>
	</g>
	<g>
		<path fill="#ABE1ED" d="M429.897,881.774l16.607-16.608l16.607-16.608c4.961-4.959,7.442-11.459,7.442-17.96
			c0-6.5-2.481-13.001-7.442-17.96c-4.956-4.961-11.458-7.442-17.96-7.442c-6.502,0-13.003,2.481-17.96,7.442l-16.606,16.607
			l-16.606,16.607l-16.606-16.607l-16.606-16.607c-4.956-4.961-11.458-7.442-17.96-7.442s-13.003,2.481-17.96,7.442
			c-4.961,4.959-7.442,11.459-7.442,17.96c0,6.5,2.481,13.001,7.442,17.96l16.607,16.608l16.607,16.608l-16.607,16.608
			l-16.607,16.608c-4.961,4.959-7.442,11.459-7.442,17.96s2.481,13.001,7.442,17.96c2.478,2.481,5.343,4.341,8.401,5.581
			c3.058,1.24,6.309,1.86,9.558,1.86s6.5-0.62,9.558-1.86c3.058-1.24,5.923-3.101,8.401-5.581l16.606-16.607l16.606-16.607
			l16.606,16.607l16.606,16.607c2.478,2.481,5.343,4.341,8.401,5.581c3.058,1.24,6.309,1.86,9.558,1.86s6.5-0.62,9.558-1.86
			c3.058-1.24,5.923-3.101,8.401-5.581c4.961-4.959,7.442-11.459,7.442-17.96s-2.481-13.001-7.442-17.96l-16.607-16.608
			L429.897,881.774z"/>
		<path fill="#2E4C59" d="M445.154,972.571c-5.294,0-10.427-1.031-15.174-2.998s-9.105-4.87-12.849-8.614l-11.576-11.577
			l-11.576-11.577L382.4,949.383l-11.579,11.579c-3.736,3.742-8.09,6.645-12.835,8.611c-4.745,1.967-9.88,2.998-15.177,2.998
			c-5.294,0-10.427-1.031-15.174-2.998s-9.105-4.87-12.849-8.614c-3.738-3.738-6.638-8.095-8.603-12.84
			c-1.965-4.745-2.995-9.878-2.995-15.169c0-5.292,1.03-10.426,2.996-15.172s4.867-9.104,8.608-12.845l11.581-11.579l11.581-11.579
			l-11.581-11.581l-11.581-11.581c-3.741-3.74-6.642-8.097-8.608-12.843c-1.966-4.745-2.996-9.879-2.996-15.169
			c0-5.292,1.03-10.426,2.996-15.172s4.867-9.104,8.608-12.845c3.738-3.741,8.094-6.643,12.84-8.609
			c4.746-1.966,9.881-2.997,15.177-2.997c5.294,0,10.427,1.031,15.173,2.998s9.103,4.87,12.844,8.614l11.576,11.577l11.576,11.577
			l11.579-11.579l11.579-11.579c3.738-3.742,8.094-6.645,12.84-8.611c4.745-1.967,9.879-2.998,15.172-2.998
			c5.296,0,10.432,1.031,15.178,2.998s9.104,4.87,12.845,8.614c3.738,3.738,6.638,8.095,8.603,12.841
			c1.965,4.745,2.995,9.879,2.995,15.171c0,5.291-1.03,10.424-2.996,15.17c-1.966,4.746-4.867,9.104-8.608,12.845l-11.581,11.58
			l-11.581,11.58l11.581,11.579l11.581,11.579c3.741,3.741,6.642,8.099,8.608,12.845c1.966,4.746,2.996,9.88,2.996,15.172
			c0,5.291-1.03,10.424-2.996,15.17c-1.966,4.746-4.867,9.104-8.608,12.845c-3.736,3.741-8.09,6.643-12.835,8.609
			C455.585,971.54,450.45,972.571,445.154,972.571z M393.979,903.474c1.886,0,3.733,0.374,5.441,1.082
			c1.709,0.708,3.279,1.749,4.612,3.084l16.606,16.607l16.606,16.607c2.116,2.114,5.014,3.17,7.91,3.17
			c2.895,0.001,5.788-1.054,7.893-3.162c1.061-1.061,1.882-2.293,2.437-3.632c0.555-1.34,0.846-2.787,0.846-4.28
			c0-1.494-0.29-2.943-0.844-4.281s-1.372-2.568-2.427-3.623l-16.608-16.607l-16.608-16.607c-1.333-1.334-2.375-2.906-3.083-4.615
			c-0.708-1.709-1.083-3.556-1.083-5.442s0.375-3.733,1.083-5.441c0.708-1.709,1.75-3.279,3.083-4.612l16.608-16.608l16.608-16.608
			c1.055-1.057,1.873-2.286,2.427-3.625c0.554-1.339,0.844-2.786,0.844-4.279c0-1.494-0.29-2.943-0.844-4.281
			s-1.372-2.568-2.427-3.623c-2.111-2.112-5.006-3.17-7.902-3.171s-5.793,1.053-7.906,3.165l-16.608,16.608l-16.608,16.608
			c-2.666,2.669-6.36,4.003-10.054,4.003c-3.694,0-7.388-1.334-10.054-4.003L367.319,839.3l-16.606-16.607
			c-2.116-2.115-5.013-3.169-7.908-3.167c-2.895,0.001-5.789,1.058-7.9,3.165c-1.058,1.058-1.877,2.289-2.432,3.628
			c-0.555,1.339-0.845,2.788-0.845,4.282c0,1.493,0.29,2.94,0.844,4.279c0.554,1.338,1.372,2.567,2.427,3.623l16.608,16.61
			l16.608,16.61c1.333,1.333,2.375,2.904,3.083,4.612s1.083,3.556,1.083,5.441s-0.375,3.733-1.083,5.442
			c-0.708,1.709-1.75,3.28-3.083,4.615l-16.608,16.607L334.9,925.046c-1.055,1.055-1.873,2.284-2.427,3.623
			c-0.554,1.339-0.844,2.787-0.844,4.281c0,1.493,0.29,2.94,0.844,4.279c0.554,1.338,1.372,2.567,2.427,3.623
			c2.116,2.116,5.014,3.173,7.91,3.174c2.895,0.001,5.788-1.055,7.893-3.163l16.611-16.611l16.611-16.611
			c1.333-1.334,2.904-2.376,4.612-3.084C390.246,903.849,392.093,903.474,393.979,903.474z"/>
	</g>
</g>
</svg>
